<mxfile host="app.diagrams.net" modified="2023-06-01T01:15:19.343Z" agent="Mozilla/5.0 (Linux; Android 10; K) AppleWebKit/537.36 (KHTML, like Gecko) Chrome/113.0.0.0 Mobile Safari/537.36" etag="WjH4bpQ0A2ZWZQilvK7G" version="21.3.6" type="github">
  <diagram name="Page-1" id="e7e014a7-5840-1c2e-5031-d8a46d1fe8dd">
    <mxGraphModel dx="520" dy="105" grid="1" gridSize="10" guides="1" tooltips="1" connect="1" arrows="1" fold="1" page="1" pageScale="1" pageWidth="1169" pageHeight="826" background="none" math="0" shadow="0">
      <root>
        <mxCell id="0" />
        <mxCell id="1" parent="0" />
        <mxCell id="2" value="Cliente" style="swimlane;whiteSpace=wrap" parent="1" vertex="1">
          <mxGeometry x="164.5" y="128" width="280" height="570" as="geometry" />
        </mxCell>
        <mxCell id="5" value="" style="ellipse;shape=startState;fillColor=#000000;strokeColor=#ff0000;" parent="2" vertex="1">
          <mxGeometry x="100" y="40" width="30" height="30" as="geometry" />
        </mxCell>
        <mxCell id="6" value="" style="edgeStyle=elbowEdgeStyle;elbow=horizontal;verticalAlign=bottom;endArrow=open;endSize=8;strokeColor=#FF0000;endFill=1;rounded=0" parent="2" source="5" target="7" edge="1">
          <mxGeometry x="100" y="40" as="geometry">
            <mxPoint x="115" y="110" as="targetPoint" />
          </mxGeometry>
        </mxCell>
        <mxCell id="7" value="Ingrese número de &#xa;La empresa " style="" parent="2" vertex="1">
          <mxGeometry x="60" y="110" width="110" height="50" as="geometry" />
        </mxCell>
        <mxCell id="8" value="Usuario nuevo " style="" parent="2" vertex="1">
          <mxGeometry x="60" y="220" width="110" height="50" as="geometry" />
        </mxCell>
        <mxCell id="9" value="" style="endArrow=open;strokeColor=#FF0000;endFill=1;rounded=0" parent="2" source="7" target="8" edge="1">
          <mxGeometry relative="1" as="geometry" />
        </mxCell>
        <mxCell id="10" value="Solicitar servicio " style="" parent="2" vertex="1">
          <mxGeometry x="60" y="325" width="110" height="50" as="geometry" />
        </mxCell>
        <mxCell id="11" value="" style="endArrow=open;strokeColor=#FF0000;endFill=1;rounded=0" parent="2" source="8" target="10" edge="1">
          <mxGeometry relative="1" as="geometry" />
        </mxCell>
        <mxCell id="3" value="Sistema " style="swimlane;whiteSpace=wrap" parent="1" vertex="1">
          <mxGeometry x="444.5" y="128" width="475.5" height="570" as="geometry" />
        </mxCell>
        <mxCell id="15" value="Se informa al&#xa;Cliente " style="" parent="3" vertex="1">
          <mxGeometry x="20" y="62" width="110" height="50" as="geometry" />
        </mxCell>
        <mxCell id="16" value="Dar ficha " style="" parent="3" vertex="1">
          <mxGeometry x="20" y="220" width="110" height="50" as="geometry" />
        </mxCell>
        <mxCell id="21" value="" style="rhombus;fillColor=#ffffc0;strokeColor=#ff0000;" parent="3" vertex="1">
          <mxGeometry x="225.5" y="225" width="80" height="45" as="geometry" />
        </mxCell>
        <mxCell id="24" value="" style="endArrow=open;strokeColor=#FF0000;endFill=1;rounded=0" parent="3" source="16" target="21" edge="1">
          <mxGeometry relative="1" as="geometry" />
        </mxCell>
        <mxCell id="Huy1JAtATK8VzCTW5DCG-69" value="" style="edgeStyle=orthogonalEdgeStyle;rounded=0;orthogonalLoop=1;jettySize=auto;html=1;fontFamily=Helvetica;fontSize=12;fontColor=default;" edge="1" parent="3" source="30" target="Huy1JAtATK8VzCTW5DCG-43">
          <mxGeometry relative="1" as="geometry" />
        </mxCell>
        <mxCell id="30" value="Consultar el riesgo&#xa;De el cliente " style="" parent="3" vertex="1">
          <mxGeometry x="210.5" y="372" width="110" height="35" as="geometry" />
        </mxCell>
        <mxCell id="Huy1JAtATK8VzCTW5DCG-54" value="" style="endArrow=open;strokeColor=#FF0000;endFill=1;rounded=0;exitX=0;exitY=0.5;exitDx=0;exitDy=0;entryX=1;entryY=0.5;entryDx=0;entryDy=0;" edge="1" parent="3" source="Huy1JAtATK8VzCTW5DCG-41" target="15">
          <mxGeometry relative="1" as="geometry">
            <mxPoint x="305.5" y="712" as="sourcePoint" />
            <mxPoint x="450.5" y="772" as="targetPoint" />
            <Array as="points" />
          </mxGeometry>
        </mxCell>
        <mxCell id="Huy1JAtATK8VzCTW5DCG-64" value="(No tiene stock)&amp;nbsp;" style="edgeLabel;html=1;align=center;verticalAlign=middle;resizable=0;points=[];fontSize=12;fontFamily=Helvetica;fontColor=default;" vertex="1" connectable="0" parent="Huy1JAtATK8VzCTW5DCG-54">
          <mxGeometry x="-0.1267" y="14" relative="1" as="geometry">
            <mxPoint as="offset" />
          </mxGeometry>
        </mxCell>
        <mxCell id="Huy1JAtATK8VzCTW5DCG-48" value="Consultar stock " style="" vertex="1" parent="3">
          <mxGeometry x="205.75" y="142" width="119.5" height="38" as="geometry" />
        </mxCell>
        <mxCell id="Huy1JAtATK8VzCTW5DCG-41" value="" style="rhombus;fillColor=#ffffc0;strokeColor=#ff0000;" vertex="1" parent="3">
          <mxGeometry x="225.5" y="67" width="80" height="40" as="geometry" />
        </mxCell>
        <mxCell id="Huy1JAtATK8VzCTW5DCG-43" value="" style="rhombus;fillColor=#ffffc0;strokeColor=#ff0000;" vertex="1" parent="3">
          <mxGeometry x="228.25" y="462" width="74.5" height="42" as="geometry" />
        </mxCell>
        <mxCell id="18" value="Enviar texto de &#xa;rechazo " style="" parent="3" vertex="1">
          <mxGeometry x="30.5" y="458" width="110" height="50" as="geometry" />
        </mxCell>
        <mxCell id="Huy1JAtATK8VzCTW5DCG-68" value="" style="endArrow=open;strokeColor=#FF0000;endFill=1;rounded=0;entryX=0.5;entryY=0;entryDx=0;entryDy=0;" edge="1" parent="3" target="Huy1JAtATK8VzCTW5DCG-43">
          <mxGeometry relative="1" as="geometry">
            <mxPoint x="265.5" y="412" as="sourcePoint" />
            <mxPoint x="265.5" y="432" as="targetPoint" />
          </mxGeometry>
        </mxCell>
        <mxCell id="4" value="Vemdedor" style="swimlane;whiteSpace=wrap" parent="1" vertex="1">
          <mxGeometry x="920" y="128" width="320" height="570" as="geometry" />
        </mxCell>
        <mxCell id="33" value="Informar el precio&#xa;Al cliente" style="" parent="4" vertex="1">
          <mxGeometry x="20" y="212" width="110" height="50" as="geometry" />
        </mxCell>
        <mxCell id="35" value="" style="edgeStyle=elbowEdgeStyle;elbow=horizontal;strokeColor=#FF0000;endArrow=open;endFill=1;rounded=0;" parent="4" edge="1">
          <mxGeometry width="100" height="100" relative="1" as="geometry">
            <mxPoint x="-170" y="87" as="sourcePoint" />
            <mxPoint x="80" y="212" as="targetPoint" />
            <Array as="points">
              <mxPoint x="80" y="162" />
            </Array>
          </mxGeometry>
        </mxCell>
        <mxCell id="Huy1JAtATK8VzCTW5DCG-66" value="(si tiene)" style="edgeLabel;html=1;align=center;verticalAlign=middle;resizable=0;points=[];fontSize=12;fontFamily=Helvetica;fontColor=default;" vertex="1" connectable="0" parent="35">
          <mxGeometry x="-0.3505" y="-6" relative="1" as="geometry">
            <mxPoint as="offset" />
          </mxGeometry>
        </mxCell>
        <mxCell id="37" value="" style="edgeStyle=none;strokeColor=#FF0000;endArrow=open;endFill=1;rounded=0;entryX=0.5;entryY=0;entryDx=0;entryDy=0;" parent="4" target="30" edge="1">
          <mxGeometry width="100" height="100" relative="1" as="geometry">
            <mxPoint x="-210" y="272" as="sourcePoint" />
            <mxPoint x="-190" y="412" as="targetPoint" />
          </mxGeometry>
        </mxCell>
        <mxCell id="Huy1JAtATK8VzCTW5DCG-67" value="(elige la opción)" style="edgeLabel;html=1;align=center;verticalAlign=middle;resizable=0;points=[];fontSize=12;fontFamily=Helvetica;fontColor=default;" vertex="1" connectable="0" parent="37">
          <mxGeometry x="-0.1109" y="4" relative="1" as="geometry">
            <mxPoint as="offset" />
          </mxGeometry>
        </mxCell>
        <mxCell id="38" value="" style="ellipse;shape=endState;fillColor=#000000;strokeColor=#ff0000" parent="4" vertex="1">
          <mxGeometry x="225" y="522" width="30" height="30" as="geometry" />
        </mxCell>
        <mxCell id="Huy1JAtATK8VzCTW5DCG-74" value="" style="rhombus;fillColor=#ffffc0;strokeColor=#ff0000;" vertex="1" parent="4">
          <mxGeometry x="200" y="216" width="80" height="34" as="geometry" />
        </mxCell>
        <mxCell id="Huy1JAtATK8VzCTW5DCG-49" value="post command" style="" vertex="1" parent="4">
          <mxGeometry x="185" y="412" width="110" height="50" as="geometry" />
        </mxCell>
        <mxCell id="20" value="" style="endArrow=open;strokeColor=#FF0000;endFill=1;rounded=0" parent="1" source="10" edge="1">
          <mxGeometry relative="1" as="geometry">
            <mxPoint x="670" y="380" as="targetPoint" />
          </mxGeometry>
        </mxCell>
        <mxCell id="Huy1JAtATK8VzCTW5DCG-50" value="post command" style="" vertex="1" parent="1">
          <mxGeometry x="130" y="910" width="110" height="50" as="geometry" />
        </mxCell>
        <mxCell id="Huy1JAtATK8VzCTW5DCG-53" value="" style="endArrow=open;strokeColor=#FF0000;endFill=1;rounded=0;exitX=1;exitY=0.5;exitDx=0;exitDy=0;entryX=0;entryY=0.5;entryDx=0;entryDy=0;" edge="1" parent="1" source="8" target="16">
          <mxGeometry relative="1" as="geometry">
            <mxPoint x="610" y="840" as="sourcePoint" />
            <mxPoint x="450" y="370" as="targetPoint" />
          </mxGeometry>
        </mxCell>
        <mxCell id="Huy1JAtATK8VzCTW5DCG-59" value="(elige la opción)" style="endArrow=open;strokeColor=#FF0000;endFill=1;rounded=0;entryX=0.5;entryY=1;entryDx=0;entryDy=0;" edge="1" parent="1" target="Huy1JAtATK8VzCTW5DCG-48">
          <mxGeometry relative="1" as="geometry">
            <mxPoint x="710" y="350" as="sourcePoint" />
            <mxPoint x="965" y="890" as="targetPoint" />
          </mxGeometry>
        </mxCell>
        <mxCell id="Huy1JAtATK8VzCTW5DCG-60" value="" style="endArrow=open;strokeColor=#FF0000;endFill=1;rounded=0;entryX=0.5;entryY=1;entryDx=0;entryDy=0;" edge="1" parent="1" target="Huy1JAtATK8VzCTW5DCG-41">
          <mxGeometry relative="1" as="geometry">
            <mxPoint x="710" y="270" as="sourcePoint" />
            <mxPoint x="955" y="860" as="targetPoint" />
          </mxGeometry>
        </mxCell>
        <mxCell id="Huy1JAtATK8VzCTW5DCG-70" value="" style="endArrow=open;strokeColor=#FF0000;endFill=1;rounded=0;exitX=0;exitY=0.5;exitDx=0;exitDy=0;" edge="1" parent="1" source="Huy1JAtATK8VzCTW5DCG-43">
          <mxGeometry relative="1" as="geometry">
            <mxPoint x="670" y="620" as="sourcePoint" />
            <mxPoint x="590" y="610" as="targetPoint" />
          </mxGeometry>
        </mxCell>
        <mxCell id="Huy1JAtATK8VzCTW5DCG-71" value="(saldo&amp;nbsp;&lt;br&gt;Insuficiente)" style="edgeLabel;html=1;align=center;verticalAlign=middle;resizable=0;points=[];fontSize=12;fontFamily=Helvetica;fontColor=default;" vertex="1" connectable="0" parent="Huy1JAtATK8VzCTW5DCG-70">
          <mxGeometry x="-0.1321" y="1" relative="1" as="geometry">
            <mxPoint x="1" y="16" as="offset" />
          </mxGeometry>
        </mxCell>
        <mxCell id="Huy1JAtATK8VzCTW5DCG-72" value="" style="endArrow=open;strokeColor=#FF0000;endFill=1;rounded=0;" edge="1" parent="1">
          <mxGeometry relative="1" as="geometry">
            <mxPoint x="750" y="610" as="sourcePoint" />
            <mxPoint x="1000" y="390" as="targetPoint" />
            <Array as="points">
              <mxPoint x="1000" y="610" />
            </Array>
          </mxGeometry>
        </mxCell>
        <mxCell id="Huy1JAtATK8VzCTW5DCG-73" value="" style="endArrow=open;strokeColor=#FF0000;endFill=1;rounded=0;entryX=0;entryY=0.5;entryDx=0;entryDy=0;" edge="1" parent="1" target="Huy1JAtATK8VzCTW5DCG-74">
          <mxGeometry relative="1" as="geometry">
            <mxPoint x="1050" y="360" as="sourcePoint" />
            <mxPoint x="1210" y="810" as="targetPoint" />
          </mxGeometry>
        </mxCell>
        <mxCell id="Huy1JAtATK8VzCTW5DCG-75" value="" style="endArrow=open;strokeColor=#FF0000;endFill=1;rounded=0;exitX=0.5;exitY=0;exitDx=0;exitDy=0;" edge="1" parent="1" source="Huy1JAtATK8VzCTW5DCG-74">
          <mxGeometry relative="1" as="geometry">
            <mxPoint x="1300" y="460" as="sourcePoint" />
            <mxPoint x="1160" y="230" as="targetPoint" />
          </mxGeometry>
        </mxCell>
        <mxCell id="Huy1JAtATK8VzCTW5DCG-76" value="" style="endArrow=open;strokeColor=#FF0000;endFill=1;rounded=0;" edge="1" parent="1">
          <mxGeometry relative="1" as="geometry">
            <mxPoint x="1160" y="380" as="sourcePoint" />
            <mxPoint x="1160" y="540" as="targetPoint" />
          </mxGeometry>
        </mxCell>
        <mxCell id="Huy1JAtATK8VzCTW5DCG-79" value="" style="endArrow=open;strokeColor=#FF0000;endFill=1;rounded=0;" edge="1" parent="1">
          <mxGeometry relative="1" as="geometry">
            <mxPoint x="1160" y="590" as="sourcePoint" />
            <mxPoint x="1515" y="1360" as="targetPoint" />
          </mxGeometry>
        </mxCell>
      </root>
    </mxGraphModel>
  </diagram>
</mxfile>
